<svg width="1703" height="717" viewBox="0 0 1703 717" fill="none" xmlns="http://www.w3.org/2000/svg">
<g opacity="0.4" clip-path="url(#clip0_2636_456)">
<path d="M1574.09 459C1502.73 459 1445 516.727 1445 588.089C1445 659.273 1502.73 717.177 1574.09 717.177C1645.27 717.177 1703.18 659.45 1703.18 588.089C1703 516.727 1645.27 459 1574.09 459ZM1574.09 708.855C1507.33 708.855 1453.32 654.846 1453.32 588.089C1453.32 521.331 1507.33 467.323 1574.09 467.323C1640.85 467.323 1694.85 521.331 1694.85 588.089C1694.85 654.669 1640.67 708.855 1574.09 708.855Z" fill="white"/>
<path d="M1574.09 486.801C1518.31 486.801 1472.98 532.132 1472.98 587.911C1472.98 643.69 1518.31 689.022 1574.09 689.022C1629.87 689.022 1675.2 643.867 1675.2 588.088C1675.2 532.132 1629.87 486.801 1574.09 486.801ZM1574.09 673.616C1526.81 673.616 1488.38 635.191 1488.38 587.911C1488.38 540.632 1526.81 502.206 1574.09 502.206C1621.37 502.206 1659.79 540.632 1659.79 587.911C1659.79 635.191 1621.37 673.616 1574.09 673.616Z" fill="white"/>
</g>
<path d="M4.08016 449.86C4.08016 451.025 3.20584 451.898 2.04008 451.898C0.874321 451.898 0 451.025 0 449.86C0 448.696 0.874321 447.822 2.04008 447.822C3.20584 447.822 4.08016 448.793 4.08016 449.86Z" fill="white"/>
<path d="M21.4698 449.86C21.4698 451.025 20.5955 451.898 19.4297 451.898C18.264 451.898 17.3896 451.025 17.3896 449.86C17.3896 448.696 18.264 447.822 19.4297 447.822C20.4983 447.822 21.4698 448.793 21.4698 449.86Z" fill="white"/>
<path d="M38.7618 449.86C38.7618 451.025 37.8875 451.898 36.7217 451.898C35.556 451.898 34.6816 451.025 34.6816 449.86C34.6816 448.696 35.556 447.822 36.7217 447.822C37.8875 447.822 38.7618 448.793 38.7618 449.86Z" fill="white"/>
<path d="M56.1505 449.86C56.1505 451.025 55.2762 451.898 54.1104 451.898C52.9446 451.898 52.0703 451.025 52.0703 449.86C52.0703 448.696 52.9446 447.822 54.1104 447.822C55.2762 447.822 56.1505 448.793 56.1505 449.86Z" fill="white"/>
<path d="M73.5401 449.86C73.5401 451.025 72.6658 451.898 71.5 451.898C70.3343 451.898 69.46 451.025 69.46 449.86C69.46 448.696 70.3343 447.822 71.5 447.822C72.5687 447.822 73.5401 448.793 73.5401 449.86Z" fill="white"/>
<path d="M90.9298 449.86C90.9298 451.025 90.0554 451.898 88.8897 451.898C87.7239 451.898 86.8496 451.025 86.8496 449.86C86.8496 448.696 87.7239 447.822 88.8897 447.822C90.0554 447.822 90.9298 448.793 90.9298 449.86Z" fill="white"/>
<path d="M108.222 449.86C108.222 451.025 107.347 451.898 106.182 451.898C105.016 451.898 104.142 451.025 104.142 449.86C104.142 448.696 105.016 447.822 106.182 447.822C107.347 447.822 108.222 448.793 108.222 449.86Z" fill="white"/>
<path d="M125.61 449.86C125.61 451.025 124.736 451.898 123.57 451.898C122.405 451.898 121.53 451.025 121.53 449.86C121.53 448.696 122.405 447.822 123.57 447.822C124.736 447.822 125.61 448.793 125.61 449.86Z" fill="white"/>
<path d="M143 449.86C143 451.025 142.126 451.898 140.96 451.898C139.794 451.898 138.92 451.025 138.92 449.86C138.92 448.696 139.794 447.822 140.96 447.822C142.029 447.822 143 448.793 143 449.86Z" fill="white"/>
<path d="M4.08016 464.319C4.08016 465.484 3.20584 466.357 2.04008 466.357C0.874321 466.357 0 465.484 0 464.319C0 463.155 0.874321 462.281 2.04008 462.281C3.20584 462.281 4.08016 463.155 4.08016 464.319Z" fill="white"/>
<path d="M21.4698 464.319C21.4698 465.484 20.5955 466.357 19.4297 466.357C18.264 466.357 17.3896 465.484 17.3896 464.319C17.3896 463.155 18.264 462.281 19.4297 462.281C20.4983 462.281 21.4698 463.155 21.4698 464.319Z" fill="white"/>
<path d="M38.7618 464.319C38.7618 465.484 37.8875 466.357 36.7217 466.357C35.556 466.357 34.6816 465.484 34.6816 464.319C34.6816 463.155 35.556 462.281 36.7217 462.281C37.8875 462.281 38.7618 463.155 38.7618 464.319Z" fill="white"/>
<path d="M56.1505 464.319C56.1505 465.484 55.2762 466.357 54.1104 466.357C52.9446 466.357 52.0703 465.484 52.0703 464.319C52.0703 463.155 52.9446 462.281 54.1104 462.281C55.2762 462.281 56.1505 463.155 56.1505 464.319Z" fill="white"/>
<path d="M73.5401 464.319C73.5401 465.484 72.6658 466.357 71.5 466.357C70.3343 466.357 69.46 465.484 69.46 464.319C69.46 463.155 70.3343 462.281 71.5 462.281C72.5687 462.281 73.5401 463.155 73.5401 464.319Z" fill="white"/>
<path d="M90.9298 464.319C90.9298 465.484 90.0554 466.357 88.8897 466.357C87.7239 466.357 86.8496 465.484 86.8496 464.319C86.8496 463.155 87.7239 462.281 88.8897 462.281C90.0554 462.281 90.9298 463.155 90.9298 464.319Z" fill="white"/>
<path d="M108.222 464.319C108.222 465.484 107.347 466.357 106.182 466.357C105.016 466.357 104.142 465.484 104.142 464.319C104.142 463.155 105.016 462.281 106.182 462.281C107.347 462.281 108.222 463.155 108.222 464.319Z" fill="white"/>
<path d="M125.61 464.319C125.61 465.484 124.736 466.357 123.57 466.357C122.405 466.357 121.53 465.484 121.53 464.319C121.53 463.155 122.405 462.281 123.57 462.281C124.736 462.281 125.61 463.155 125.61 464.319Z" fill="white"/>
<path d="M143 464.319C143 465.484 142.126 466.357 140.96 466.357C139.794 466.357 138.92 465.484 138.92 464.319C138.92 463.155 139.794 462.281 140.96 462.281C142.029 462.281 143 463.155 143 464.319Z" fill="white"/>
<path d="M4.08016 421.038C4.08016 422.202 3.20584 423.076 2.04008 423.076C0.874321 423.076 0 422.202 0 421.038C0 419.873 0.874321 419 2.04008 419C3.20584 419 4.08016 419.873 4.08016 421.038Z" fill="white"/>
<path d="M21.4698 421.038C21.4698 422.202 20.5955 423.076 19.4297 423.076C18.264 423.076 17.3896 422.202 17.3896 421.038C17.3896 419.873 18.264 419 19.4297 419C20.4983 419 21.4698 419.873 21.4698 421.038Z" fill="white"/>
<path d="M38.7618 421.038C38.7618 422.202 37.8875 423.076 36.7217 423.076C35.556 423.076 34.6816 422.202 34.6816 421.038C34.6816 419.873 35.6531 419 36.7217 419C37.8875 419 38.7618 419.873 38.7618 421.038Z" fill="white"/>
<path d="M56.1505 421.038C56.1505 422.202 55.2762 423.076 54.1104 423.076C52.9446 423.076 52.0703 422.202 52.0703 421.038C52.0703 419.873 53.0418 419 54.1104 419C55.179 419 56.1505 419.873 56.1505 421.038Z" fill="white"/>
<path d="M73.5401 421.038C73.5401 422.202 72.6658 423.076 71.5 423.076C70.3343 423.076 69.46 422.202 69.46 421.038C69.46 419.873 70.3343 419 71.5 419C72.5687 419 73.5401 419.873 73.5401 421.038Z" fill="white"/>
<path d="M90.9298 421.038C90.9298 422.202 90.0554 423.076 88.8897 423.076C87.7239 423.076 86.8496 422.202 86.8496 421.038C86.8496 419.873 87.7239 419 88.8897 419C90.0554 419 90.9298 419.873 90.9298 421.038Z" fill="white"/>
<path d="M108.222 421.038C108.222 422.202 107.347 423.076 106.182 423.076C105.016 423.076 104.142 422.202 104.142 421.038C104.142 419.873 105.016 419 106.182 419C107.347 419 108.222 419.873 108.222 421.038Z" fill="white"/>
<path d="M125.61 421.038C125.61 422.202 124.736 423.076 123.57 423.076C122.405 423.076 121.53 422.202 121.53 421.038C121.53 419.873 122.405 419 123.57 419C124.736 419 125.61 419.873 125.61 421.038Z" fill="white"/>
<path d="M143 421.038C143 422.202 142.126 423.076 140.96 423.076C139.794 423.076 138.92 422.202 138.92 421.038C138.92 419.873 139.794 419 140.96 419C142.029 419 143 419.873 143 421.038Z" fill="white"/>
<path d="M4.08016 435.497C4.08016 436.661 3.20584 437.535 2.04008 437.535C0.874321 437.535 0 436.564 0 435.497C0 434.332 0.874321 433.459 2.04008 433.459C3.20584 433.459 4.08016 434.332 4.08016 435.497Z" fill="white"/>
<path d="M21.4698 435.497C21.4698 436.661 20.5955 437.535 19.4297 437.535C18.264 437.535 17.3896 436.661 17.3896 435.497C17.3896 434.332 18.264 433.459 19.4297 433.459C20.4983 433.459 21.4698 434.332 21.4698 435.497Z" fill="white"/>
<path d="M38.7618 435.497C38.7618 436.661 37.8875 437.535 36.7217 437.535C35.556 437.535 34.6816 436.661 34.6816 435.497C34.6816 434.332 35.556 433.459 36.7217 433.459C37.8875 433.459 38.7618 434.332 38.7618 435.497Z" fill="white"/>
<path d="M56.1505 435.497C56.1505 436.661 55.2762 437.535 54.1104 437.535C52.9446 437.535 52.0703 436.661 52.0703 435.497C52.0703 434.332 52.9446 433.459 54.1104 433.459C55.2762 433.459 56.1505 434.332 56.1505 435.497Z" fill="white"/>
<path d="M73.5401 435.497C73.5401 436.661 72.6658 437.535 71.5 437.535C70.3343 437.535 69.46 436.661 69.46 435.497C69.46 434.332 70.3343 433.459 71.5 433.459C72.5687 433.459 73.5401 434.332 73.5401 435.497Z" fill="white"/>
<path d="M90.9298 435.497C90.9298 436.661 90.0554 437.535 88.8897 437.535C87.7239 437.535 86.8496 436.661 86.8496 435.497C86.8496 434.332 87.7239 433.459 88.8897 433.459C90.0554 433.459 90.9298 434.332 90.9298 435.497Z" fill="white"/>
<path d="M108.222 435.497C108.222 436.661 107.347 437.535 106.182 437.535C105.016 437.535 104.142 436.661 104.142 435.497C104.142 434.332 105.016 433.459 106.182 433.459C107.347 433.459 108.222 434.332 108.222 435.497Z" fill="white"/>
<path d="M125.61 435.497C125.61 436.661 124.736 437.535 123.57 437.535C122.405 437.535 121.53 436.661 121.53 435.497C121.53 434.332 122.405 433.459 123.57 433.459C124.736 433.459 125.61 434.332 125.61 435.497Z" fill="white"/>
<path d="M143 435.497C143 436.661 142.126 437.535 140.96 437.535C139.794 437.535 138.92 436.661 138.92 435.497C138.92 434.332 139.794 433.459 140.96 433.459C142.029 433.459 143 434.332 143 435.497Z" fill="white"/>
<path d="M4.08016 478.68C4.08016 479.845 3.20584 480.718 2.04008 480.718C0.874321 480.718 0 479.845 0 478.68C0 477.516 0.874321 476.643 2.04008 476.643C3.20584 476.643 4.08016 477.613 4.08016 478.68Z" fill="white"/>
<path d="M21.4698 478.68C21.4698 479.845 20.5955 480.718 19.4297 480.718C18.264 480.718 17.3896 479.845 17.3896 478.68C17.3896 477.516 18.264 476.643 19.4297 476.643C20.4983 476.643 21.4698 477.613 21.4698 478.68Z" fill="white"/>
<path d="M38.7618 478.68C38.7618 479.845 37.8875 480.718 36.7217 480.718C35.556 480.718 34.6816 479.845 34.6816 478.68C34.6816 477.516 35.556 476.643 36.7217 476.643C37.8875 476.643 38.7618 477.613 38.7618 478.68Z" fill="white"/>
<path d="M56.1505 478.68C56.1505 479.845 55.2762 480.718 54.1104 480.718C52.9446 480.718 52.0703 479.845 52.0703 478.68C52.0703 477.516 52.9446 476.643 54.1104 476.643C55.2762 476.643 56.1505 477.613 56.1505 478.68Z" fill="white"/>
<path d="M73.5401 478.68C73.5401 479.845 72.6658 480.718 71.5 480.718C70.3343 480.718 69.46 479.845 69.46 478.68C69.46 477.516 70.3343 476.643 71.5 476.643C72.5687 476.643 73.5401 477.613 73.5401 478.68Z" fill="white"/>
<path d="M90.9298 478.68C90.9298 479.845 90.0554 480.718 88.8897 480.718C87.7239 480.718 86.8496 479.845 86.8496 478.68C86.8496 477.516 87.7239 476.643 88.8897 476.643C90.0554 476.643 90.9298 477.613 90.9298 478.68Z" fill="white"/>
<path d="M108.222 478.68C108.222 479.845 107.347 480.718 106.182 480.718C105.016 480.718 104.142 479.845 104.142 478.68C104.142 477.516 105.016 476.643 106.182 476.643C107.347 476.643 108.222 477.613 108.222 478.68Z" fill="white"/>
<path d="M125.61 478.68C125.61 479.845 124.736 480.718 123.57 480.718C122.405 480.718 121.53 479.845 121.53 478.68C121.53 477.516 122.405 476.643 123.57 476.643C124.736 476.643 125.61 477.613 125.61 478.68Z" fill="white"/>
<path d="M143 478.68C143 479.845 142.126 480.718 140.96 480.718C139.794 480.718 138.92 479.845 138.92 478.68C138.92 477.516 139.794 476.643 140.96 476.643C142.029 476.643 143 477.613 143 478.68Z" fill="white"/>
<path d="M4.08016 493.139C4.08016 494.304 3.20584 495.177 2.04008 495.177C0.874321 495.177 0 494.304 0 493.139C0 491.975 0.874321 491.102 2.04008 491.102C3.20584 491.102 4.08016 491.975 4.08016 493.139Z" fill="white"/>
<path d="M21.4698 493.139C21.4698 494.304 20.5955 495.177 19.4297 495.177C18.264 495.177 17.3896 494.304 17.3896 493.139C17.3896 491.975 18.264 491.102 19.4297 491.102C20.4983 491.102 21.4698 491.975 21.4698 493.139Z" fill="white"/>
<path d="M38.7618 493.139C38.7618 494.304 37.8875 495.177 36.7217 495.177C35.556 495.177 34.6816 494.304 34.6816 493.139C34.6816 491.975 35.556 491.102 36.7217 491.102C37.8875 491.102 38.7618 491.975 38.7618 493.139Z" fill="white"/>
<path d="M54.1104 495.177C55.2371 495.177 56.1505 494.265 56.1505 493.139C56.1505 492.014 55.2371 491.102 54.1104 491.102C52.9837 491.102 52.0703 492.014 52.0703 493.139C52.0703 494.265 52.9837 495.177 54.1104 495.177Z" fill="white"/>
<path d="M73.5401 493.139C73.5401 494.304 72.6658 495.177 71.5 495.177C70.3343 495.177 69.46 494.304 69.46 493.139C69.46 491.975 70.3343 491.102 71.5 491.102C72.5687 491.102 73.5401 491.975 73.5401 493.139Z" fill="white"/>
<path d="M90.9298 493.139C90.9298 494.304 90.0554 495.177 88.8897 495.177C87.7239 495.177 86.8496 494.304 86.8496 493.139C86.8496 491.975 87.7239 491.102 88.8897 491.102C90.0554 491.102 90.9298 491.975 90.9298 493.139Z" fill="white"/>
<path d="M108.222 493.139C108.222 494.304 107.347 495.177 106.182 495.177C105.016 495.177 104.142 494.304 104.142 493.139C104.142 491.975 105.016 491.102 106.182 491.102C107.347 491.102 108.222 491.975 108.222 493.139Z" fill="white"/>
<path d="M123.57 495.177C124.697 495.177 125.61 494.265 125.61 493.139C125.61 492.014 124.697 491.102 123.57 491.102C122.444 491.102 121.53 492.014 121.53 493.139C121.53 494.265 122.444 495.177 123.57 495.177Z" fill="white"/>
<path d="M143 493.139C143 494.304 142.126 495.177 140.96 495.177C139.794 495.177 138.92 494.304 138.92 493.139C138.92 491.975 139.794 491.102 140.96 491.102C142.029 491.102 143 491.975 143 493.139Z" fill="white"/>
<path d="M4.08016 507.6C4.08016 508.765 3.20584 509.638 2.04008 509.638C0.874321 509.638 0 508.765 0 507.6C0 506.436 0.874321 505.562 2.04008 505.562C3.20584 505.562 4.08016 506.436 4.08016 507.6Z" fill="white"/>
<path d="M21.4698 507.6C21.4698 508.765 20.5955 509.638 19.4297 509.638C18.264 509.638 17.3896 508.765 17.3896 507.6C17.3896 506.436 18.264 505.562 19.4297 505.562C20.4983 505.562 21.4698 506.436 21.4698 507.6Z" fill="white"/>
<path d="M38.7618 507.6C38.7618 508.765 37.8875 509.638 36.7217 509.638C35.556 509.638 34.6816 508.765 34.6816 507.6C34.6816 506.436 35.556 505.562 36.7217 505.562C37.8875 505.562 38.7618 506.436 38.7618 507.6Z" fill="white"/>
<path d="M56.1505 507.6C56.1505 508.765 55.2762 509.638 54.1104 509.638C52.9446 509.638 52.0703 508.765 52.0703 507.6C52.0703 506.436 52.9446 505.562 54.1104 505.562C55.2762 505.562 56.1505 506.436 56.1505 507.6Z" fill="white"/>
<path d="M73.5401 507.6C73.5401 508.765 72.6658 509.638 71.5 509.638C70.3343 509.638 69.46 508.765 69.46 507.6C69.46 506.436 70.3343 505.562 71.5 505.562C72.5687 505.562 73.5401 506.436 73.5401 507.6Z" fill="white"/>
<path d="M90.9298 507.6C90.9298 508.765 90.0554 509.638 88.8897 509.638C87.7239 509.638 86.8496 508.765 86.8496 507.6C86.8496 506.436 87.7239 505.562 88.8897 505.562C90.0554 505.562 90.9298 506.436 90.9298 507.6Z" fill="white"/>
<path d="M108.222 507.6C108.222 508.765 107.347 509.638 106.182 509.638C105.016 509.638 104.142 508.765 104.142 507.6C104.142 506.436 105.016 505.562 106.182 505.562C107.347 505.562 108.222 506.436 108.222 507.6Z" fill="white"/>
<path d="M125.61 507.6C125.61 508.765 124.736 509.638 123.57 509.638C122.405 509.638 121.53 508.765 121.53 507.6C121.53 506.436 122.405 505.562 123.57 505.562C124.736 505.562 125.61 506.436 125.61 507.6Z" fill="white"/>
<path d="M143 507.6C143 508.765 142.126 509.638 140.96 509.638C139.794 509.638 138.92 508.765 138.92 507.6C138.92 506.436 139.794 505.562 140.96 505.562C142.029 505.562 143 506.436 143 507.6Z" fill="white"/>
<path d="M4.08016 521.962C4.08016 523.126 3.20584 524 2.04008 524C0.874321 524 0 523.126 0 521.962C0 520.797 0.874321 519.924 2.04008 519.924C3.20584 519.924 4.08016 520.894 4.08016 521.962Z" fill="white"/>
<path d="M21.4698 521.962C21.4698 523.126 20.5955 524 19.4297 524C18.264 524 17.3896 523.126 17.3896 521.962C17.3896 520.797 18.264 519.924 19.4297 519.924C20.4983 519.924 21.4698 520.894 21.4698 521.962Z" fill="white"/>
<path d="M38.7618 521.962C38.7618 523.126 37.8875 524 36.7217 524C35.556 524 34.6816 523.126 34.6816 521.962C34.6816 520.797 35.556 519.924 36.7217 519.924C37.8875 519.924 38.7618 520.894 38.7618 521.962Z" fill="white"/>
<path d="M56.1505 521.962C56.1505 523.126 55.2762 524 54.1104 524C52.9446 524 52.0703 523.126 52.0703 521.962C52.0703 520.797 52.9446 519.924 54.1104 519.924C55.2762 519.924 56.1505 520.894 56.1505 521.962Z" fill="white"/>
<path d="M73.5401 521.962C73.5401 523.126 72.6658 524 71.5 524C70.3343 524 69.46 523.126 69.46 521.962C69.46 520.797 70.3343 519.924 71.5 519.924C72.5687 519.924 73.5401 520.894 73.5401 521.962Z" fill="white"/>
<path d="M90.9298 521.962C90.9298 523.126 90.0554 524 88.8897 524C87.7239 524 86.8496 523.126 86.8496 521.962C86.8496 520.797 87.7239 519.924 88.8897 519.924C90.0554 519.924 90.9298 520.894 90.9298 521.962Z" fill="white"/>
<path d="M108.222 521.962C108.222 523.126 107.347 524 106.182 524C105.016 524 104.142 523.126 104.142 521.962C104.142 520.797 105.016 519.924 106.182 519.924C107.347 519.924 108.222 520.894 108.222 521.962Z" fill="white"/>
<path d="M125.61 521.962C125.61 523.126 124.736 524 123.57 524C122.405 524 121.53 523.126 121.53 521.962C121.53 520.797 122.405 519.924 123.57 519.924C124.736 519.924 125.61 520.894 125.61 521.962Z" fill="white"/>
<path d="M143 521.962C143 523.126 142.126 524 140.96 524C139.794 524 138.92 523.126 138.92 521.962C138.92 520.797 139.794 519.924 140.96 519.924C142.029 519.924 143 520.894 143 521.962Z" fill="white"/>
<g opacity="0.6">
<path d="M905.73 42.8901C916.327 42.8901 924.96 34.1647 924.96 23.4534C924.96 12.7422 916.327 4.01672 905.73 4.01672L905.73 42.8901Z" fill="white"/>
<path d="M875.73 42.8901C886.327 42.8901 894.96 34.1647 894.96 23.4534C894.96 12.7422 886.327 4.01672 875.73 4.01672L875.73 42.8901Z" fill="white"/>
<path d="M845.73 42.8902C856.327 42.8902 864.96 34.1647 864.96 23.4534C864.96 12.7422 856.327 4.01672 845.73 4.01672L845.73 42.8902Z" fill="white"/>
</g>
<defs>
<clipPath id="clip0_2636_456">
<rect width="258" height="258" fill="white" transform="translate(1445 459)"/>
</clipPath>
</defs>
</svg>
